<?xml version="1.0" standalone="no"?>
<!DOCTYPE svg PUBLIC "-//W3C//DTD SVG 20010904//EN"
 "http://www.w3.org/TR/2001/REC-SVG-20010904/DTD/svg10.dtd">
<svg version="1.0" xmlns="http://www.w3.org/2000/svg"
 width="251.000000pt" height="200.000000pt" viewBox="0 0 251.000000 200.000000"
 preserveAspectRatio="xMidYMid meet">

<g transform="translate(0.000000,200.000000) scale(0.100000,-0.100000)"
fill="#000000" stroke="none">
<path d="M643 1979 c158 -54 278 -180 452 -474 204 -345 359 -466 595 -464
l75 0 -42 14 c-67 20 -133 63 -206 134 -87 84 -146 163 -252 341 -214 358
-364 471 -620 470 l-60 -1 58 -20z"/>
<path d="M10 423 c0 -229 1 -240 24 -288 44 -96 110 -130 244 -124 70 4 86 8
123 34 26 18 53 50 68 80 25 48 26 54 29 292 l3 243 -59 0 -60 0 -4 -222 c-4
-240 -11 -278 -59 -312 -36 -25 -102 -21 -137 9 -44 37 -52 87 -52 319 l0 206
-60 0 -60 0 0 -237z"/>
<path d="M570 333 l0 -328 65 0 65 0 0 153 0 152 95 0 95 0 0 50 0 50 -95 0
-95 0 0 75 0 75 100 0 100 0 0 50 0 50 -165 0 -165 0 0 -327z"/>
<path d="M954 643 c3 -10 59 -155 125 -323 l118 -305 40 -3 39 -3 122 308 c66
169 124 316 128 326 6 16 0 18 -61 15 l-68 -3 -71 -207 c-40 -114 -74 -210
-77 -213 -4 -3 -42 90 -86 207 l-80 213 -67 3 c-61 3 -67 1 -62 -15z"/>
<path d="M1600 405 c0 -245 -1 -256 -21 -276 -20 -20 -32 -20 -69 -5 -12 5
-20 -6 -34 -45 -23 -62 -17 -69 67 -69 66 0 103 16 140 60 41 49 47 89 47 348
l0 242 -65 0 -65 0 0 -255z"/>
<path d="M1886 633 c-8 -36 -106 -609 -106 -617 0 -3 28 -6 63 -6 l63 0 28
198 c16 108 32 200 35 204 4 4 39 -86 80 -201 96 -274 91 -274 192 5 41 112
76 204 79 204 3 0 16 -82 29 -181 34 -258 24 -235 96 -229 l61 5 -27 180 c-15
99 -38 244 -50 323 l-21 142 -52 0 -51 0 -75 -204 c-41 -113 -77 -202 -80
-200 -3 3 -39 94 -81 202 l-77 197 -50 3 c-48 3 -50 2 -56 -25z"/>
</g>
</svg>
